<?xml version="1.0" encoding="UTF-8"?>
<svg xmlns="http://www.w3.org/2000/svg" xmlns:xlink="http://www.w3.org/1999/xlink" viewBox="0 0 64 64" width="64px" height="64px">
<g id="surface17030044">
<path style=" stroke:none;fill-rule:nonzero;fill:rgb(95.294118%,95.294118%,95.294118%);fill-opacity:1;" d="M 50.667969 8 L 13.332031 8 C 10.386719 8 8 10.386719 8 13.332031 L 8 50.667969 C 8 53.613281 10.386719 56 13.332031 56 L 50.667969 56 C 53.613281 56 56 53.613281 56 50.667969 L 56 13.332031 C 56 10.386719 53.613281 8 50.667969 8 Z M 47.753906 41.824219 L 43.125 41.886719 C 43.125 41.886719 42.128906 42.082031 40.820312 41.179688 C 39.089844 39.992188 37.457031 36.898438 36.1875 37.300781 C 34.894531 37.710938 34.9375 40.496094 34.9375 40.496094 C 34.9375 40.496094 34.945312 40.988281 34.652344 41.308594 C 34.332031 41.652344 33.703125 41.617188 33.703125 41.617188 L 31.632812 41.617188 C 31.632812 41.617188 27.0625 41.996094 23.03125 37.792969 C 18.644531 33.214844 14.765625 24.179688 14.765625 24.179688 C 14.765625 24.179688 14.539062 23.609375 14.78125 23.316406 C 15.054688 22.996094 15.796875 22.988281 15.796875 22.988281 L 20.75 22.960938 C 20.75 22.960938 21.214844 23.046875 21.550781 23.289062 C 21.828125 23.492188 21.984375 23.875 21.984375 23.875 C 21.984375 23.875 22.785156 25.902344 23.84375 27.742188 C 25.914062 31.324219 26.878906 32.105469 27.578125 31.722656 C 28.601562 31.164062 28.296875 26.660156 28.296875 26.660156 C 28.296875 26.660156 28.316406 25.027344 27.78125 24.296875 C 27.367188 23.730469 26.585938 23.5625 26.238281 23.519531 C 25.960938 23.484375 26.414062 22.835938 27.011719 22.542969 C 27.902344 22.105469 29.476562 22.078125 31.335938 22.097656 C 32.785156 22.113281 33.203125 22.203125 33.769531 22.339844 C 35.476562 22.753906 34.894531 24.347656 34.894531 28.175781 C 34.894531 29.402344 34.675781 31.125 35.558594 31.691406 C 35.9375 31.9375 36.867188 31.730469 39.183594 27.785156 C 40.285156 25.910156 41.109375 23.710938 41.109375 23.710938 C 41.109375 23.710938 41.289062 23.320312 41.570312 23.152344 C 41.859375 22.980469 42.246094 23.03125 42.246094 23.03125 L 47.457031 23 C 47.457031 23 49.023438 22.8125 49.28125 23.523438 C 49.546875 24.265625 48.695312 26.003906 46.566406 28.84375 C 43.070312 33.507812 42.679688 33.074219 45.585938 35.773438 C 48.355469 38.351562 48.929688 39.605469 49.027344 39.761719 C 50.171875 41.671875 47.753906 41.824219 47.753906 41.824219 Z M 47.753906 41.824219 "/>
</g>
</svg>
